PathFileType        4      (X/Y/Z)      C:\Users\pc\Desktop\IMUTRC\Sujet_01\Sujet_01_Tpose.trc         
DataRate	CameraRate	NumFrames	NumMarkers	Units	OrigDataRate	OrigDataStartFrame	OrigNumFrames
60.0	60.0	4	64	mm	60.0	43	114
Frame#	Time	pHipOrigin			pRightASI			pLeftASI			pRightCSI			pLeftCSI			pRightIschialTub			pLeftIschialTub			pSacrum			pL5SpinalProcess			pL3SpinalProcess			pT12SpinalProcess			pIJ			pT4SpinalProcess			pT8SpinalProcess			pPX			pC7SpinalProcess			pTopOfHead			pRightAuricularis			pLeftAuricularis			pBackOfHead			pRightAcromion			pLeftAcromion			pRightArmLatEpicondyle			pRightArmMedEpicondyle			pLeftArmLatEpicondyle			pLeftArmMedEpicondyle			pRightUlnarStyloid			pRightRadialStyloid			pRightOlecranon			pLeftUlnarStyloid			pLeftRadialStyloid			pLeftOlecranon			pRightTopOfHand			pRightPinky			pRightBallHand			pLeftTopOfHand			pLeftPinky			pLeftBallHand			pRightGreaterTrochanter			pRightKneeLatEpicondyle			pRightKneeMedEpicondyle			pRightPatella			pLeftGreaterTrochanter			pLeftKneeLatEpicondyle			pLeftKneeMedEpicondyle			pLeftPatella			pRightTibialTub			pRightLatMalleolus			pRightMedMalleolus			pLeftTibialTub			pLeftLatMalleolus			pLeftMedMalleolus			pRightHeelFoot			pRightFirstMetatarsal			pRightFifthMetatarsal			pRightPivotFoot			pRightHeelCenter			pRightToe			pLeftHeelFoot			pLeftFirstMetatarsal			pLeftFifthMetatarsal			pLeftPivotFoot			pLeftHeelCenter			pLeftToe			
		X1	Y1	Z1	X2	Y2	Z2	X3	Y3	Z3	X4	Y4	Z4	X5	Y5	Z5	X6	Y6	Z6	X7	Y7	Z7	X8	Y8	Z8	X9	Y9	Z9	X10	Y10	Z10	X11	Y11	Z11	X12	Y12	Z12	X13	Y13	Z13	X14	Y14	Z14	X15	Y15	Z15	X16	Y16	Z16	X17	Y17	Z17	X18	Y18	Z18	X19	Y19	Z19	X20	Y20	Z20	X21	Y21	Z21	X22	Y22	Z22	X23	Y23	Z23	X24	Y24	Z24	X25	Y25	Z25	X26	Y26	Z26	X27	Y27	Z27	X28	Y28	Z28	X29	Y29	Z29	X30	Y30	Z30	X31	Y31	Z31	X32	Y32	Z32	X33	Y33	Z33	X34	Y34	Z34	X35	Y35	Z35	X36	Y36	Z36	X37	Y37	Z37	X38	Y38	Z38	X39	Y39	Z39	X40	Y40	Z40	X41	Y41	Z41	X42	Y42	Z42	X43	Y43	Z43	X44	Y44	Z44	X45	Y45	Z45	X46	Y46	Z46	X47	Y47	Z47	X48	Y48	Z48	X49	Y49	Z49	X50	Y50	Z50	X51	Y51	Z51	X52	Y52	Z52	X53	Y53	Z53	X54	Y54	Z54	X55	Y55	Z55	X56	Y56	Z56	X57	Y57	Z57	X58	Y58	Z58	X59	Y59	Z59	X60	Y60	Z60	X61	Y61	Z61	X62	Y62	Z62	X63	Y63	Z63	X64	Y64	Z64	
43	0.7	0.0	1249.97542	7.653891985579342E-14	28.938699999999983	1347.38347	131.64273000000009	70.80210000000001	1348.01394	-114.1786299999999	-14.500870000000013	1403.81079	101.88441000000009	19.92294000000001	1404.31517	-100.24517999999992	-52.83362000000001	1192.03497	42.87215000000006	-35.62170999999999	1192.28716	-58.19263999999993	-62.41681	1262.26964	-10.591939999999928	-39.40455	1352.55335	-6.683009999999922	-34.17163	1456.8966	-6.367779999999915	-36.37828	1552.28714	-7.691769999999909	110.20665	1741.80727	17.21191000000012	-26.73205	1729.95438	-8.322239999999898	-36.37828	1647.42549	-8.889669999999905	101.69527	1628.6374	17.274960000000114	-21.12084	1778.31165	-5.611209999999893	42.99825	2017.26085	6.998250000000128	45.646229999999996	1920.16803	68.78459000000011	39.78284000000001	1925.71619	-62.73204999999987	-9.01576	1923.00516	5.359020000000117	-29.695270000000022	1746.72496	173.31698000000011	24.02101000000002	1763.99991	-175.5866799999999	-94.82311000000004	1626.2416	373.1768600000001	-49.93345000000004	1596.48328	370.52888000000013	44.57443000000005	1651.96489	-393.2258999999999	77.61120000000004	1614.07348	-373.74428999999986	-80.70052000000007	1516.72847	559.7337700000002	-106.10858000000007	1549.8283	573.6672200000002	-60.90367000000004	1597.49204	361.3870200000001	103.58668000000007	1537.0297	-566.1015499999999	93.94045000000007	1574.73197	-586.5288699999999	63.929940000000045	1617.0367	-370.46582999999987	-191.9159300000001	1468.30816	687.4675700000001	-122.56392000000008	1473.35194	646.3607400000001	-95.39054000000007	1515.97191	600.9667000000001	92.49036000000008	1509.91937	-738.7250099999999	108.44133000000008	1496.11201	-660.7355199999998	112.85464000000007	1533.49905	-604.1821099999999	-32.02802000000001	1219.96491	140.7215300000001	-48.672500000000014	876.29418	106.10858000000006	-29.253940000000004	876.60941	41.73730000000005	-2.26970000000001	876.23113	82.65499000000005	6.935200000000018	1219.39749	-142.61294999999993	-8.196149999999987	875.72675	-106.99123999999995	-0.3152399999999951	877.05075	-40.224169999999944	33.35201000000001	876.9877	-75.78282999999995	9.330999999999989	839.47457	87.06830000000005	-86.87916000000001	472.035	96.33625000000002	-69.35201	470.90015	38.77408000000002	47.47460000000001	842.68998	-81.45708999999994	-25.534149999999983	473.67423	-134.92117999999996	-17.33799999999999	468.37826	-75.59368999999997	-113.54816	330.99823	48.924690000000005	65.82135999999998	334.97021	99.74080000000002	22.88615999999998	335.60068	176.78458000000003	66.83011999999998	335.85287	149.35901000000004	-75.84588000000001	329.73729	69.98248	130.94920999999997	341.0858	185.04377000000005	-57.75130999999998	330.17862	-91.79683999999999	128.30122	339.00524	-81.96146999999998	112.72854000000001	334.65497	-168.65147999999996	145.32399000000004	337.80734	-128.61645999999993	-15.194399999999987	329.4851	-99.36251999999999	217.45008000000004	343.98597	-141.85638999999995	
44	0.717	0.0	1249.97542	7.653891985579342E-14	28.875659999999982	1347.38347	131.64273000000009	70.86515000000001	1348.01394	-114.1155799999999	-14.563920000000012	1403.81079	101.88441000000009	19.98599000000001	1404.31517	-100.18212999999992	-52.89667000000001	1192.03497	42.809100000000065	-35.62170999999999	1192.28716	-58.25568999999994	-62.41681	1262.26964	-10.654989999999929	-39.40455	1352.55335	-6.746059999999922	-34.17163	1456.8966	-6.430819999999915	-36.31523	1552.28714	-7.754819999999909	110.33274	1741.74422	17.27496000000012	-26.669	1729.95438	-8.322239999999898	-36.25219	1647.48854	-8.952709999999902	101.75831	1628.57435	17.338000000000115	-20.99475	1778.31165	-5.611209999999893	42.99825	2017.26085	6.935200000000129	45.77232999999999	1920.16803	68.78459000000011	39.78284000000001	1925.71619	-62.795089999999874	-8.95271	1922.94211	5.359020000000117	-29.695270000000022	1746.72496	173.2539300000001	24.147110000000023	1763.93687	-175.6497299999999	-94.82311000000004	1626.2416	373.1138200000001	-49.93345000000004	1596.54633	370.4658300000001	44.32224000000005	1651.96489	-393.2889499999999	77.42206000000004	1614.07348	-373.8703799999999	-80.76357000000007	1516.91761	559.7968200000001	-106.17162000000008	1550.01744	573.6672200000002	-60.90367000000004	1597.49204	361.3870200000001	103.01926000000007	1537.0297	-566.2906899999999	93.30998000000007	1574.73197	-586.7180099999999	63.74080000000004	1617.09975	-370.5919299999999	-192.0420200000001	1468.56035	687.5306100000001	-122.62696000000008	1473.60413	646.4237900000002	-95.51663000000008	1516.16105	600.9667000000001	91.60770000000008	1509.85632	-738.8510999999999	107.74781000000009	1496.11201	-660.9246599999999	112.22416000000007	1533.49905	-604.3712499999999	-32.091070000000016	1219.96491	140.7215300000001	-48.798600000000015	876.29418	106.04553000000006	-29.380030000000005	876.60941	41.67425000000005	-2.39580000000001	876.23113	82.59194000000005	6.998250000000017	1219.39749	-142.61294999999993	-8.259189999999988	875.7898	-106.99123999999995	-0.44132999999999506	877.05075	-40.287209999999945	33.288970000000006	876.9877	-75.78282999999995	9.20489999999999	839.47457	87.00525000000006	-87.06830000000001	472.035	96.21015000000001	-69.47811	470.90015	38.71103000000002	47.41156000000001	842.68998	-81.52013999999994	-25.660239999999984	473.67423	-135.04727999999997	-17.52713999999999	468.37826	-75.71978999999997	-113.7373	330.99823	48.79860000000001	65.63221999999999	334.97021	99.61471000000003	22.697019999999977	335.60068	176.65849000000003	66.64097999999998	335.85287	149.23292000000004	-75.97198000000002	329.73729	69.85639	130.76005999999998	341.0858	184.98073000000005	-57.87740999999998	330.17862	-91.85988999999998	128.11208	339.00524	-82.02450999999998	112.53940000000001	334.65497	-168.77756999999997	145.13484000000003	337.80734	-128.67949999999993	-15.320489999999987	329.4851	-99.48860999999998	217.26094000000003	343.98597	-141.98247999999995	
45	0.733	0.0	1249.97542	7.653891985579342E-14	28.74955999999998	1347.38347	131.64273000000009	70.92819000000001	1348.01394	-114.0525299999999	-14.626970000000012	1403.81079	101.88441000000009	20.049040000000012	1404.31517	-100.18212999999992	-52.89667000000001	1192.03497	42.809100000000065	-35.55866999999999	1192.28716	-58.25568999999994	-62.41681	1262.26964	-10.654989999999929	-39.40455	1352.6164	-6.746059999999922	-34.10858	1456.8966	-6.430819999999915	-36.31523	1552.28714	-7.754819999999909	110.39579	1741.74422	17.33800000000012	-26.54291	1729.95438	-8.385289999999896	-36.18914	1647.48854	-9.015759999999903	101.82136	1628.57435	17.401050000000115	-20.86865	1778.31165	-5.674259999999894	42.9352	2017.26085	6.872150000000129	45.83536999999999	1920.16803	68.72154000000012	39.78284000000001	1925.71619	-62.85813999999987	-8.88967	1922.87907	5.295970000000117	-29.695270000000022	1746.78801	173.1908800000001	24.27320000000002	1763.93687	-175.6497299999999	-94.88616000000005	1626.2416	372.98772000000014	-49.93345000000004	1596.54633	370.4658300000001	44.00700000000005	1652.02794	-393.3519899999999	77.16987000000005	1614.13652	-374.0595299999999	-80.82662000000008	1517.1698	559.8598700000001	-106.29772000000007	1550.20658	573.6672200000002	-60.90367000000004	1597.49204	361.3239800000001	102.32574000000007	1537.0297	-566.4798299999999	92.55341000000007	1574.73197	-586.9071499999999	63.55166000000004	1617.16279	-370.7180199999999	-192.16812000000007	1468.81254	687.5936600000001	-122.69001000000009	1473.91937	646.4868300000002	-95.57968000000007	1516.41324	601.0297400000001	90.53590000000008	1509.73022	-739.0402399999999	106.86514000000008	1496.04896	-661.0507599999999	111.46760000000008	1533.49905	-604.5603899999999	-32.15411000000002	1219.90187	140.65849000000009	-48.92469000000001	876.29418	105.98248000000005	-29.443080000000002	876.60941	41.61121000000005	-2.52189000000001	876.23113	82.52889000000006	7.061300000000018	1219.39749	-142.61294999999993	-8.322239999999988	875.7898	-107.05428999999994	-0.5674299999999951	877.05075	-40.287209999999945	33.162870000000005	876.9877	-75.84587999999994	9.07880999999999	839.47457	86.94220000000006	-87.25744000000002	472.035	96.08406000000001	-69.66725	470.9632	38.584940000000024	47.28546000000001	842.68998	-81.52013999999994	-25.78633999999998	473.73728	-135.17336999999998	-17.65323999999999	468.37826	-75.78282999999998	-113.92644	330.99823	48.67250000000001	65.44307999999998	334.97021	99.48861000000002	22.50787999999998	335.60068	176.53239000000002	66.45183999999999	335.85287	149.16987000000003	-76.16112000000001	329.73729	69.73029	130.57091999999997	341.0858	184.85463000000004	-58.066549999999985	330.24167	-91.98599	127.92294000000001	339.00524	-82.15060999999997	112.41330000000002	334.65497	-168.90366999999998	145.00875000000002	337.80734	-128.80559999999994	-15.509629999999987	329.54815	-99.61470999999999	217.13484000000003	343.98597	-142.04552999999996	
46	0.75	0.0	1249.97542	7.653891985579342E-14	28.68650999999998	1347.38347	131.7057700000001	70.99124000000002	1348.01394	-114.0525299999999	-14.690020000000013	1403.81079	101.88441000000009	20.11208000000001	1404.31517	-100.18212999999992	-52.959720000000004	1192.03497	42.746060000000064	-35.55866999999999	1192.28716	-58.25568999999994	-62.41681	1262.26964	-10.71803999999993	-39.40455	1352.6164	-6.746059999999922	-34.10858	1456.8966	-6.493869999999916	-36.25219	1552.28714	-7.817859999999909	110.45884	1741.68118	17.33800000000012	-26.41681	1729.95438	-8.511379999999898	-36.12609	1647.48854	-9.078809999999903	101.88441	1628.5113	17.401050000000115	-20.74256	1778.2486	-5.800349999999893	42.74606	2017.32389	6.872150000000129	45.83536999999999	1920.16803	68.65849000000011	39.78284000000001	1925.77924	-62.85813999999987	-8.95271	1922.81602	5.295970000000117	-29.63222000000002	1746.78801	173.1278400000001	24.33625000000002	1763.87382	-175.7127799999999	-94.88616000000005	1626.2416	372.92468000000014	-49.87040000000004	1596.60938	370.4027800000001	43.69177000000005	1652.09099	-393.4780899999999	76.91768000000005	1614.19957	-374.2486699999999	-80.82662000000008	1517.35895	559.8598700000001	-106.36077000000007	1550.45877	573.6672200000002	-60.84063000000004	1597.55509	361.3239800000001	101.63222000000007	1537.09274	-566.7320199999999	91.73380000000007	1574.73197	-587.0962899999998	63.29947000000004	1617.22584	-370.84411999999986	-192.23116000000007	1469.12777	687.5936600000001	-122.75306000000009	1474.17156	646.5498800000001	-95.64273000000007	1516.66543	601.0297400000001	89.40105000000008	1509.60413	-739.1663399999999	105.98248000000008	1496.04896	-661.2398999999999	110.64798000000008	1533.49905	-604.8125799999999	-32.217160000000014	1219.90187	140.65849000000009	-49.05079000000001	876.29418	105.85639000000006	-29.569180000000003	876.60941	41.54816000000005	-2.6479900000000103	876.23113	82.46585000000006	7.124340000000018	1219.39749	-142.61294999999993	-8.385289999999987	875.7898	-107.05428999999994	-0.630469999999995	877.05075	-40.35025999999994	33.09982000000001	876.9877	-75.84587999999994	8.952709999999989	839.47457	86.87916000000006	-87.44658000000001	472.035	95.95796000000001	-69.85639	470.9632	38.45884000000002	47.22241000000001	842.68998	-81.58317999999994	-25.975479999999983	473.73728	-135.29946999999999	-17.842379999999988	468.37826	-75.90892999999997	-114.11558	330.99823	48.54641000000001	65.25393999999999	334.97021	99.36252000000003	22.318739999999977	335.60068	176.40630000000002	66.26268999999999	335.85287	149.04378000000003	-76.35026000000002	329.73729	69.6042	130.38177999999996	341.02275	184.72854000000007	-58.25568999999999	330.24167	-92.11208	127.79684000000002	339.06828	-82.27669999999998	112.22416000000001	334.65497	-169.02975999999998	144.81961000000004	337.80734	-128.93168999999995	-15.698769999999987	329.54815	-99.74079999999998	216.94570000000002	343.98597	-142.17161999999993	
